<?xml version="1.0" standalone="no"?>
<!DOCTYPE svg PUBLIC "-//W3C//DTD SVG 20010904//EN"
 "http://www.w3.org/TR/2001/REC-SVG-20010904/DTD/svg10.dtd">
<svg version="1.0" xmlns="http://www.w3.org/2000/svg"
 width="1024.000000pt" height="1024.000000pt" viewBox="0 0 1024.000000 1024.000000"
 preserveAspectRatio="xMidYMid meet">
<metadata>
Created by potrace 1.16, written by Peter Selinger 2001-2019
</metadata>
<g transform="translate(0.000000,1024.000000) scale(0.100000,-0.100000)"
fill="#000000" stroke="none">
<path d="M0 5120 l0 -5120 5120 0 5120 0 0 5120 0 5120 -5120 0 -5120 0 0
-5120z m5510 4012 c268 -48 497 -120 690 -217 107 -54 130 -54 251 -6 57 23
140 62 184 86 262 147 317 163 370 110 32 -31 33 -81 2 -126 -26 -39 -227
-151 -442 -246 -71 -31 -193 -93 -270 -138 -77 -45 -160 -93 -185 -107 -25
-14 -88 -50 -140 -80 -52 -30 -151 -85 -220 -123 -274 -151 -373 -223 -412
-300 -29 -56 -85 -133 -145 -199 l-51 -55 -19 22 c-38 42 -85 119 -123 200
-21 45 -48 92 -61 103 -49 45 -395 247 -588 344 -44 21 -119 63 -168 93 -120
73 -369 202 -418 217 -22 7 -121 52 -221 100 -99 48 -193 90 -208 94 -67 17
-110 108 -81 171 22 45 59 69 96 61 16 -3 134 -57 262 -120 128 -63 260 -123
294 -132 l63 -17 109 51 c238 112 376 159 574 197 210 40 258 44 507 41 184
-2 260 -8 350 -24z m-1828 -557 c31 -28 63 -47 86 -51 20 -4 41 -9 45 -11 5
-3 -58 -73 -140 -157 -286 -290 -433 -532 -524 -861 -84 -304 -93 -771 -19
-1049 94 -352 247 -622 510 -900 97 -103 245 -225 319 -265 32 -17 63 -31 68
-31 5 0 8 108 6 263 -2 144 0 406 4 582 l8 320 87 3 c84 3 88 2 93 -20 2 -13
7 -309 9 -658 l4 -635 29 -6 c15 -3 47 -15 69 -27 139 -71 509 -161 667 -162
l39 0 -4 364 c-3 347 -2 365 16 385 11 12 36 26 57 32 33 10 42 9 81 -12 l43
-24 3 -373 2 -372 40 0 c55 0 253 28 325 46 90 22 305 94 350 117 22 11 51 23
64 26 l24 7 0 662 0 662 31 -1 c17 -1 60 -6 96 -13 l65 -11 8 -140 c4 -77 6
-336 3 -576 -3 -240 -3 -439 0 -442 10 -10 83 31 164 91 88 66 281 256 366
361 185 232 339 561 398 855 51 250 39 656 -25 902 -92 352 -314 707 -599 959
l-102 90 66 21 c37 11 79 33 95 48 l30 29 45 -27 c24 -14 74 -59 110 -99 89
-99 263 -328 313 -413 145 -245 238 -499 287 -786 22 -126 31 -429 17 -568
-21 -204 -90 -472 -164 -630 -16 -36 -35 -76 -41 -90 -105 -232 -348 -550
-555 -723 -87 -73 -334 -241 -426 -289 -174 -91 -418 -184 -580 -219 -257 -57
-490 -71 -744 -44 -286 30 -510 98 -792 240 -302 153 -530 337 -761 615 -94
113 -243 352 -301 485 -55 126 -113 317 -144 475 -26 137 -28 160 -28 410 0
233 3 279 23 385 35 182 58 267 113 410 117 302 270 536 518 788 52 53 97 97
99 97 2 0 26 -20 54 -45z m583 -420 c251 -44 499 -245 586 -474 65 -171 64
-440 -1 -614 -49 -130 -195 -305 -314 -376 -32 -19 -94 -48 -139 -64 -74 -27
-97 -30 -238 -35 -135 -4 -167 -1 -240 17 -229 57 -415 208 -508 413 -54 118
-65 178 -65 348 l-1 155 42 105 c62 154 106 221 208 319 101 96 184 145 305
181 140 42 232 48 365 25z m2025 4 c233 -37 454 -210 570 -444 75 -153 106
-378 71 -525 -65 -271 -255 -485 -508 -571 -93 -31 -105 -33 -238 -32 -171 1
-233 15 -375 85 -90 44 -117 63 -190 137 -96 98 -139 164 -186 290 -42 112
-58 211 -51 326 15 277 145 490 388 637 154 93 335 127 519 97z m-1040 -1146
c88 -151 139 -232 176 -278 17 -22 39 -54 48 -72 14 -29 14 -35 -3 -85 -10
-29 -56 -129 -101 -223 -45 -93 -86 -181 -92 -195 -16 -41 -130 -240 -138
-240 -16 0 -41 42 -113 185 -86 174 -165 350 -202 452 l-26 72 25 48 c13 26
61 100 106 163 45 63 98 140 117 170 20 30 51 74 70 98 32 40 37 42 52 28 10
-9 46 -64 81 -123z m-544 -878 c35 -23 64 -74 64 -113 0 -103 -115 -175 -197
-123 -93 58 -94 176 -2 239 39 27 92 26 135 -3z m1021 0 c78 -52 83 -175 8
-233 -20 -16 -41 -22 -80 -22 -44 0 -57 5 -90 33 -34 29 -39 39 -42 88 -4 45
-1 60 19 88 46 67 123 86 185 46z m-1026 -550 c91 -48 89 -179 -3 -235 -111
-68 -243 63 -183 181 32 62 121 87 186 54z m1009 0 c39 -20 70 -82 70 -141 0
-39 -5 -51 -33 -79 -61 -61 -137 -56 -198 13 -29 32 -31 40 -27 90 4 49 9 59
46 94 46 43 90 50 142 23z m-342 -1315 c43 -26 74 -78 67 -110 -10 -40 -74
-100 -108 -100 -56 0 -117 65 -117 125 0 37 16 63 53 85 40 25 64 25 105 0z
m-2121 -851 l1 -530 -26 -10 c-32 -12 -136 6 -157 27 -10 11 -12 82 -9 351 3
300 2 333 -10 296 -8 -23 -48 -104 -90 -180 -41 -76 -109 -208 -152 -294 l-76
-157 -53 107 c-28 58 -101 210 -160 336 -60 127 -111 233 -114 237 -3 4 -6
-153 -6 -348 0 -415 7 -389 -103 -381 -35 3 -68 9 -74 15 -13 13 -12 -12 -10
560 l2 492 89 0 88 0 25 -37 c54 -81 166 -286 243 -443 l81 -164 23 64 c13 36
41 99 61 140 21 41 62 122 90 180 29 58 75 140 102 182 l49 77 87 4 c48 1 89
4 92 5 3 1 6 -237 7 -529z m1788 342 c-4 -11 -33 -13 -140 -9 l-136 4 7 -433
7 -432 -29 -12 c-16 -6 -53 -8 -84 -5 -98 9 -93 -15 -88 466 l5 415 -141 0
-141 0 -3 92 -3 93 368 2 368 3 7 -85 c4 -47 5 -91 3 -99z m1096 173 c72 -21
199 -75 199 -84 0 -4 -13 -24 -29 -44 -17 -21 -35 -53 -41 -72 -9 -27 -16 -34
-29 -28 -137 59 -222 72 -295 46 -59 -20 -86 -54 -93 -114 -5 -42 -3 -46 38
-81 26 -23 82 -52 148 -77 58 -23 129 -50 157 -61 66 -26 119 -71 146 -122 17
-33 22 -60 23 -122 0 -133 -56 -222 -180 -283 -114 -56 -201 -63 -335 -26 -62
18 -220 109 -220 128 0 6 18 29 39 50 22 22 45 53 52 70 7 17 14 33 15 35 2 2
24 -15 49 -37 113 -100 318 -104 376 -8 23 38 24 84 3 114 -21 30 -67 52 -217
102 -178 59 -238 108 -272 223 -38 129 7 274 107 343 82 57 251 80 359 48z
m1249 5 c0 -8 -151 -257 -199 -328 -21 -31 -71 -114 -112 -185 l-74 -130 -3
-203 c-4 -234 -2 -230 -99 -220 -87 9 -85 2 -82 228 l3 198 -84 138 c-46 76
-111 179 -145 228 -57 82 -155 253 -155 269 0 3 44 6 98 6 l97 0 74 -123 c41
-67 102 -168 135 -224 34 -56 63 -102 67 -102 3 -1 15 20 28 47 32 65 178 318
212 367 l29 40 105 0 c58 0 105 -3 105 -6z m665 -33 c50 -21 100 -44 113 -52
l23 -15 -31 -36 c-17 -19 -39 -51 -48 -70 -18 -38 -15 -38 -112 4 -87 37 -206
40 -261 6 -40 -25 -59 -59 -59 -106 0 -66 53 -105 231 -168 198 -70 255 -113
285 -215 40 -137 -36 -283 -186 -358 -123 -61 -264 -55 -410 18 -56 29 -146
76 -159 84 -3 1 14 18 37 38 26 22 46 50 53 75 7 21 14 39 17 39 3 0 27 -14
53 -30 74 -48 148 -70 234 -70 91 0 122 14 153 68 30 54 29 92 -5 124 -38 35
-70 50 -196 92 -181 61 -229 92 -274 180 -19 38 -24 63 -24 120 0 207 139 321
381 312 82 -3 107 -8 185 -40z m-3905 -62 l0 -96 -236 4 -236 3 7 -125 c4 -69
8 -127 10 -128 2 -2 94 -6 205 -9 l201 -6 -6 -56 c-3 -31 -8 -71 -11 -89 l-5
-33 -192 1 -192 2 -3 -124 -3 -123 241 3 240 4 0 -98 0 -99 -328 -2 c-180 -1
-331 1 -337 5 -7 5 -9 191 -7 535 l3 527 325 0 324 0 0 -96z m1270 81 c9 -11
13 -139 16 -524 4 -431 2 -510 -10 -520 -20 -17 -78 -25 -120 -17 -71 13 -67
-14 -66 515 1 262 6 493 11 513 9 37 10 37 67 41 31 2 64 4 73 5 9 1 22 -5 29
-13z m-197 -1501 c65 -22 133 -97 142 -156 4 -25 2 -63 -5 -87 -14 -53 -79
-126 -127 -142 -69 -23 -189 7 -235 58 -83 92 -49 250 67 310 67 35 96 38 158
17z"/>
<path d="M4985 8954 c-201 -15 -359 -49 -575 -123 -63 -21 -134 -42 -157 -46
-44 -7 -61 -28 -42 -51 18 -22 155 -107 319 -196 207 -114 394 -227 510 -307
52 -37 101 -70 108 -75 8 -5 26 4 50 25 51 45 276 191 395 255 134 74 386 228
432 264 21 17 42 30 46 30 5 0 9 5 9 10 0 32 -350 144 -599 192 -103 20 -367
31 -496 22z"/>
<path d="M4040 7950 c-208 -32 -384 -183 -457 -392 -21 -61 -26 -91 -26 -188
-1 -174 34 -281 127 -390 111 -129 260 -199 427 -200 167 0 294 52 409 169
276 279 228 706 -104 923 -103 66 -251 97 -376 78z m231 -272 c75 -34 133 -88
164 -152 93 -190 15 -395 -185 -492 -169 -82 -412 45 -466 243 -44 163 55 355
211 411 85 30 199 26 276 -10z"/>
<path d="M4052 7490 c-35 -22 -72 -88 -72 -130 0 -38 35 -106 64 -125 96 -63
226 13 226 132 0 51 -30 98 -79 123 -51 25 -97 25 -139 0z"/>
<path d="M5994 7936 c-95 -31 -178 -83 -245 -153 -66 -70 -91 -109 -123 -194
-36 -96 -49 -201 -36 -285 35 -219 154 -386 335 -469 327 -151 688 18 791 370
23 79 23 228 0 315 -53 197 -202 352 -403 419 -88 30 -223 28 -319 -3z m318
-259 c121 -60 190 -163 196 -297 5 -102 -21 -170 -95 -250 -78 -85 -144 -115
-248 -114 -93 0 -162 27 -237 93 -183 162 -129 481 98 577 84 35 204 31 286
-9z"/>
<path d="M6089 7494 c-97 -61 -92 -208 9 -267 62 -37 159 -1 197 74 21 39 19
98 -5 136 -38 63 -143 92 -201 57z"/>
<path d="M5114 6763 c-15 -27 -40 -64 -56 -83 -15 -19 -28 -43 -28 -54 0 -24
88 -246 105 -264 10 -11 16 -2 34 45 12 32 40 93 61 136 l39 78 -49 75 c-27
41 -52 84 -55 94 -10 30 -21 24 -51 -27z"/>
</g>
</svg>
